<svg xmlns="http://www.w3.org/2000/svg" width="1600" height="980" viewBox="0 0 1600 980">
  <defs>
    <linearGradient id="bg" x1="0" y1="0" x2="1" y2="1">
      <stop offset="0%" stop-color="#0b0f1e"/>
      <stop offset="100%" stop-color="#101c38"/>
    </linearGradient>
    <marker id="arrow" viewBox="0 0 10 10" refX="8" refY="5" markerWidth="7" markerHeight="7" orient="auto-start-reverse">
      <path d="M 0 0 L 10 5 L 0 10 z" fill="#9fe6ff"/>
    </marker>
  </defs>
  <rect width="1600" height="980" fill="url(#bg)"/>
  <text x="70" y="78" fill="#edf8ff" font-size="44" font-family="Segoe UI, Arial, sans-serif" font-weight="700">Dual Graph Core</text>
  <text x="70" y="118" fill="#9fccff" font-size="22" font-family="Segoe UI, Arial, sans-serif">Per-article process graph + global concept graph, bridged with deterministic weak entanglement.</text>

  <rect x="70" y="170" width="700" height="740" rx="24" fill="#172952" stroke="#66dfff" stroke-width="2"/>
  <text x="102" y="218" fill="#e8f8ff" font-size="28" font-family="Segoe UI, Arial, sans-serif" font-weight="700">Article Process Graph (strong edges)</text>

  <rect x="110" y="270" width="260" height="94" rx="16" fill="#274a81" stroke="#8ce2ff"/>
  <text x="132" y="325" fill="#e7f8ff" font-size="22" font-family="Segoe UI, Arial, sans-serif">deposition_state</text>

  <rect x="440" y="270" width="280" height="94" rx="16" fill="#274a81" stroke="#8ce2ff"/>
  <text x="464" y="325" fill="#e7f8ff" font-size="22" font-family="Segoe UI, Arial, sans-serif">film_phase_as_deposited</text>

  <rect x="110" y="440" width="260" height="94" rx="16" fill="#274a81" stroke="#8ce2ff"/>
  <text x="142" y="495" fill="#e7f8ff" font-size="22" font-family="Segoe UI, Arial, sans-serif">anneal_step</text>

  <rect x="440" y="440" width="280" height="94" rx="16" fill="#274a81" stroke="#8ce2ff"/>
  <text x="468" y="495" fill="#e7f8ff" font-size="22" font-family="Segoe UI, Arial, sans-serif">film_phase_post_anneal</text>

  <rect x="110" y="610" width="610" height="94" rx="16" fill="#274a81" stroke="#8ce2ff"/>
  <text x="134" y="665" fill="#e7f8ff" font-size="22" font-family="Segoe UI, Arial, sans-serif">condition vectors: thickness_asdep, thickness_anneal, T, t, pressure, strain</text>

  <line x1="370" y1="317" x2="440" y2="317" stroke="#9fe6ff" stroke-width="3" marker-end="url(#arrow)"/>
  <line x1="240" y1="364" x2="240" y2="440" stroke="#9fe6ff" stroke-width="3" marker-end="url(#arrow)"/>
  <line x1="580" y1="364" x2="580" y2="440" stroke="#9fe6ff" stroke-width="3" marker-end="url(#arrow)"/>
  <line x1="240" y1="534" x2="240" y2="610" stroke="#9fe6ff" stroke-width="3" marker-end="url(#arrow)"/>
  <line x1="580" y1="534" x2="580" y2="610" stroke="#9fe6ff" stroke-width="3" marker-end="url(#arrow)"/>

  <rect x="840" y="170" width="690" height="740" rx="24" fill="#1a2f44" stroke="#66dfff" stroke-width="2"/>
  <text x="872" y="218" fill="#e8f8ff" font-size="28" font-family="Segoe UI, Arial, sans-serif" font-weight="700">Global Concept Graph (shared nodes)</text>

  <circle cx="955" cy="320" r="58" fill="#225f74" stroke="#9cefff"/>
  <text x="926" y="327" fill="#e9fcff" font-size="23" font-family="Segoe UI, Arial, sans-serif">NiSi</text>

  <circle cx="1110" cy="320" r="48" fill="#225f74" stroke="#9cefff"/>
  <text x="1096" y="327" fill="#e9fcff" font-size="22" font-family="Segoe UI, Arial, sans-serif">Ni</text>

  <circle cx="1238" cy="320" r="48" fill="#225f74" stroke="#9cefff"/>
  <text x="1225" y="327" fill="#e9fcff" font-size="22" font-family="Segoe UI, Arial, sans-serif">Si</text>

  <circle cx="1368" cy="320" r="68" fill="#225f74" stroke="#9cefff"/>
  <text x="1328" y="327" fill="#e9fcff" font-size="20" font-family="Segoe UI, Arial, sans-serif">space_group</text>

  <circle cx="1000" cy="520" r="58" fill="#225f74" stroke="#9cefff"/>
  <text x="956" y="527" fill="#e9fcff" font-size="22" font-family="Segoe UI, Arial, sans-serif">substrate</text>

  <circle cx="1150" cy="520" r="62" fill="#225f74" stroke="#9cefff"/>
  <text x="1110" y="527" fill="#e9fcff" font-size="20" font-family="Segoe UI, Arial, sans-serif">orientation</text>

  <circle cx="1310" cy="520" r="66" fill="#225f74" stroke="#9cefff"/>
  <text x="1268" y="527" fill="#e9fcff" font-size="20" font-family="Segoe UI, Arial, sans-serif">method_family</text>

  <circle cx="1085" cy="705" r="72" fill="#225f74" stroke="#9cefff"/>
  <text x="1040" y="700" fill="#e9fcff" font-size="20" font-family="Segoe UI, Arial, sans-serif">mp_thermo</text>
  <text x="1038" y="728" fill="#e9fcff" font-size="18" font-family="Segoe UI, Arial, sans-serif">and electronic</text>

  <line x1="1006" y1="320" x2="1062" y2="320" stroke="#9fe6ff" stroke-width="2.5"/>
  <line x1="1158" y1="320" x2="1190" y2="320" stroke="#9fe6ff" stroke-width="2.5"/>
  <line x1="1286" y1="320" x2="1302" y2="320" stroke="#9fe6ff" stroke-width="2.5"/>
  <line x1="955" y1="378" x2="1000" y2="462" stroke="#9fe6ff" stroke-width="2.5"/>
  <line x1="970" y1="363" x2="1130" y2="475" stroke="#9fe6ff" stroke-width="2.5"/>
  <line x1="986" y1="355" x2="1260" y2="488" stroke="#9fe6ff" stroke-width="2.5"/>
  <line x1="1090" y1="578" x2="1085" y2="633" stroke="#9fe6ff" stroke-width="2.5"/>

  <path d="M 770 320 C 820 320, 830 320, 897 320" stroke="#5fffb7" stroke-width="3.5" stroke-dasharray="8 8" fill="none" marker-end="url(#arrow)"/>
  <path d="M 770 487 C 820 487, 840 487, 942 520" stroke="#5fffb7" stroke-width="3.5" stroke-dasharray="8 8" fill="none" marker-end="url(#arrow)"/>
  <path d="M 770 657 C 830 657, 860 657, 1010 705" stroke="#5fffb7" stroke-width="3.5" stroke-dasharray="8 8" fill="none" marker-end="url(#arrow)"/>

  <text x="815" y="295" fill="#79ffc8" font-size="18" font-family="Segoe UI, Arial, sans-serif">film_gate</text>
  <text x="815" y="463" fill="#79ffc8" font-size="18" font-family="Segoe UI, Arial, sans-serif">substrate_gate</text>
  <text x="815" y="633" fill="#79ffc8" font-size="18" font-family="Segoe UI, Arial, sans-serif">thermo_gate</text>
</svg>
